<svg xmlns="http://www.w3.org/2000/svg" viewBox="0 0 512 512" width="100%" height="100%">
  <rect width="512" height="512" rx="128" fill="#111111"/>
  
  <g transform="translate(40, 40)">
    <line x1="0" y1="110" x2="432" y2="326" stroke="#181818" stroke-width="6" />
    <line x1="0" y1="170" x2="432" y2="386" stroke="#181818" stroke-width="6" />
    <line x1="0" y1="230" x2="432" y2="446" stroke="#181818" stroke-width="6" />
    <line x1="0" y1="210" x2="432" y2="-6"   stroke="#181818" stroke-width="6" />
    <line x1="0" y1="270" x2="432" y2="54"  stroke="#181818" stroke-width="6" />
    <line x1="0" y1="330" x2="432" y2="114" stroke="#181818" stroke-width="6" />
    <line x1="0" y1="390" x2="432" y2="174" stroke="#181818" stroke-width="6" />

    <line x1="0" y1="80"  x2="432" y2="296" stroke="#00ff66" stroke-width="4" opacity="0.3" />
    <line x1="0" y1="140" x2="432" y2="356" stroke="#00ff66" stroke-width="4" opacity="0.3" />
    <line x1="0" y1="200" x2="432" y2="416" stroke="#00ff66" stroke-width="4" opacity="0.3" />
    <line x1="0" y1="260" x2="432" y2="476" stroke="#00ff66" stroke-width="4" opacity="0.3" />
    <line x1="0" y1="180" x2="432" y2="-36" stroke="#00ff66" stroke-width="4" opacity="0.3" />
    <line x1="0" y1="240" x2="432" y2="24"  stroke="#00ff66" stroke-width="4" opacity="0.3" />
    <line x1="0" y1="300" x2="432" y2="84"  stroke="#00ff66" stroke-width="4" opacity="0.3" />
    <line x1="0" y1="360" x2="432" y2="144" stroke="#00ff66" stroke-width="4" opacity="0.3" />
    <line x1="0" y1="420" x2="432" y2="204" stroke="#00ff66" stroke-width="4" opacity="0.3" />

    <line x1="160" y1="60" x2="160" y2="380" stroke="#00ff66" stroke-width="28" stroke-linecap="round" />
    <line x1="160" y1="220" x2="340" y2="310" stroke="#00ff66" stroke-width="28" stroke-linecap="round" />

    <path d="M 160,220 Q 230,120 360,60" fill="none" stroke="#ff2222" stroke-width="24" stroke-linecap="round" />
    <path d="M 160,220 Q 230,120 360,60" fill="none" stroke="#ff5555" stroke-width="8" stroke-linecap="round" />

    <g transform="translate(360, 60) rotate(65)">
      <path d="M 0,-32 L 22,22 L 0,10 L -22,22 Z" fill="#ffffff" stroke="#111111" stroke-width="5" stroke-linejoin="round" />
    </g>
  </g>
</svg>
